/* XPM */
static char * nemesisIcon16x16[] = {
"16 16 172 2",
"  	c None",
". 	c #000000",
"+ 	c #010000",
"@ 	c #040101",
"# 	c #030101",
"$ 	c #020100",
"% 	c #0C0403",
"& 	c #0B0303",
"* 	c #000001",
"= 	c #110603",
"- 	c #0F0402",
"; 	c #170603",
"> 	c #180504",
", 	c #280B06",
"' 	c #41150B",
") 	c #70230E",
"! 	c #661809",
"~ 	c #621F0A",
"{ 	c #3D0D03",
"] 	c #380D03",
"^ 	c #170604",
"/ 	c #090201",
"( 	c #080304",
"_ 	c #360B0A",
": 	c #C64717",
"< 	c #511108",
"[ 	c #661E0D",
"} 	c #350E07",
"| 	c #020101",
"1 	c #591408",
"2 	c #B5410F",
"3 	c #CB4910",
"4 	c #360706",
"5 	c #1E0803",
"6 	c #060202",
"7 	c #0E0603",
"8 	c #1A0804",
"9 	c #6C2611",
"0 	c #741E0A",
"a 	c #CE4010",
"b 	c #A62E0C",
"c 	c #7A2009",
"d 	c #360A07",
"e 	c #5C1507",
"f 	c #CC3F0C",
"g 	c #8C2A0B",
"h 	c #A3360D",
"i 	c #230904",
"j 	c #0A0402",
"k 	c #010100",
"l 	c #070303",
"m 	c #54190C",
"n 	c #77210D",
"o 	c #2E0B06",
"p 	c #7C1E0A",
"q 	c #95240E",
"r 	c #C73F11",
"s 	c #68190B",
"t 	c #661C0B",
"u 	c #7E280B",
"v 	c #2C0C05",
"w 	c #7B250C",
"x 	c #4C1608",
"y 	c #020201",
"z 	c #030100",
"A 	c #030102",
"B 	c #5C1A0C",
"C 	c #240806",
"D 	c #2D0B05",
"E 	c #551809",
"F 	c #97250D",
"G 	c #651109",
"H 	c #94270E",
"I 	c #A62F0D",
"J 	c #671B0A",
"K 	c #511006",
"L 	c #63180B",
"M 	c #7E230C",
"N 	c #050101",
"O 	c #080301",
"P 	c #1F0403",
"Q 	c #9F3613",
"R 	c #340806",
"S 	c #5A1207",
"T 	c #871F0C",
"U 	c #5B1309",
"V 	c #6C1208",
"W 	c #87280E",
"X 	c #4D120B",
"Y 	c #8C2910",
"Z 	c #83240B",
"` 	c #6E1A0A",
" .	c #B6350F",
"..	c #030200",
"+.	c #210803",
"@.	c #6A1A09",
"#.	c #80250C",
"$.	c #892A0C",
"%.	c #85250C",
"&.	c #A72C10",
"*.	c #C84B12",
"=.	c #A8320E",
"-.	c #9B2C0D",
";.	c #C9410E",
">.	c #AA2F0D",
",.	c #8D2309",
"'.	c #A3290C",
").	c #070201",
"!.	c #0E0201",
"~.	c #9B2E0E",
"{.	c #BA3D0E",
"].	c #531109",
"^.	c #3B0C08",
"/.	c #9F2C0C",
"(.	c #C64612",
"_.	c #E65814",
":.	c #531106",
"<.	c #992A0C",
"[.	c #5F1708",
"}.	c #87240B",
"|.	c #7C200B",
"1.	c #140603",
"2.	c #0A0302",
"3.	c #340B04",
"4.	c #831E0C",
"5.	c #B0330F",
"6.	c #8C280F",
"7.	c #741F0B",
"8.	c #88280B",
"9.	c #972B0D",
"0.	c #79200C",
"a.	c #000002",
"b.	c #220705",
"c.	c #3F1509",
"d.	c #1C0502",
"e.	c #0B0403",
"f.	c #020000",
"g.	c #090302",
"h.	c #1D0802",
"i.	c #4B170B",
"j.	c #9E2B11",
"k.	c #651F0B",
"l.	c #711D0E",
"m.	c #601607",
"n.	c #781C0A",
"o.	c #94290D",
"p.	c #0A0103",
"q.	c #5B1B0E",
"r.	c #3E1609",
"s.	c #080303",
"t.	c #340F07",
"u.	c #6A2411",
"v.	c #49100A",
"w.	c #C64917",
"x.	c #AE3512",
"y.	c #400D07",
"z.	c #5F250E",
"A.	c #220805",
"B.	c #1A0603",
"C.	c #090402",
"D.	c #0E0602",
"E.	c #0E0403",
"F.	c #110403",
"G.	c #421808",
"H.	c #320E05",
"I.	c #160803",
"J.	c #080302",
"K.	c #000101",
"L.	c #0C0303",
"M.	c #1E0902",
"N.	c #160604",
"O.	c #0C0302",
". . . . . . + @ # $ + . . . . . ",
". . . . % & . . . * = - # . . . ",
". . @ ; > , ' ) ! ~ { ] ^ # . . ",
". / ( _ : < [ } | 1 2 3 4 5 6 . ",
"+ 7 8 9 0 a b c d e f g h i j . ",
"k l m n o p q r s t u v w x y z ",
"# A B C D E F G H I J K L M . N ",
"O P Q R S T U V W X Y Z `  .. O ",
"..+.@.#.$.%.&.*.=.-.;.>.,.'.* ).",
").!.~.{.].^./.(._.:.<.[.}.|.1.N ",
"# 2.3.4.5.6.7.8.9.0.a.b.c.d.e.f.",
". g.h.i.j.k.l.m.n.o.p.q.r.# 6 . ",
". . s.+ t.u.v.w.x.y.z.A.B.C.. . ",
". . . # D.E.F.G.H.^ I.J.. . . . ",
". . . . . K.L.M.N.O.K.. . . . . ",
". . . . . . . . . . . . . . . . "};
